# Blender v2.78 (sub 0) OBJ File: 'Spoon.blend'
# www.blender.org
mtllib Spoon_low.mtl
o Circle
v 0.080434 0.379938 -0.011945
v 0.148697 0.474785 -0.019877
v 0.190937 0.539080 -0.016042
v 0.207068 0.616879 -0.011402
v 0.208835 0.764195 -0.002616
v 0.174105 0.932873 0.007444
v 0.129789 1.025698 0.012980
v 0.065109 1.097974 0.017290
v 0.044741 0.112779 0.013272
v 0.038551 0.322303 0.023481
v 0.067430 0.407208 -0.004389
v 0.173994 0.456823 -0.046984
v 0.223126 0.526451 -0.042625
v 0.241725 0.609966 -0.037396
v 0.243677 0.761490 -0.027909
v 0.205361 0.934750 -0.017062
v 0.155339 1.032303 -0.010954
v 0.080374 1.110296 -0.006071
v 0.054086 -0.183149 -0.003063
v 0.066546 -0.474405 -0.022460
v 0.077449 -0.628599 -0.032670
v 0.099254 -0.817058 -0.041858
v 0.111714 -0.952562 -0.040837
v 0.111714 -1.024208 -0.033797
v 0.089909 -1.077164 -0.024699
v 0.050971 -1.119217 -0.015878
v 0.040919 0.242144 0.022229
v 0.108286 0.436519 -0.071731
v 0.038551 0.315922 0.003037
v 0.044741 0.112779 -0.011426
v 0.069463 0.379938 -0.029116
v 0.160573 0.900042 -0.082897
v 0.205749 0.761490 -0.127432
v 0.196937 0.609966 -0.141002
v 0.171143 0.526451 -0.123773
v 0.118298 0.994589 -0.052289
v 0.048902 1.098244 -0.023299
v 0.054086 -0.183149 -0.036268
v 0.066546 -0.474405 -0.059068
v 0.077449 -0.628599 -0.070128
v 0.099254 -0.817058 -0.080031
v 0.111714 -0.952562 -0.079010
v 0.111714 -1.024208 -0.064620
v 0.089909 -1.077164 -0.049396
v 0.050971 -1.121769 -0.035471
v 0.040919 0.242144 -0.002469
v 0.118925 0.541414 -0.106700
v 0.155810 0.612488 -0.094222
v 0.174387 0.660682 -0.088650
v 0.174839 0.781730 -0.085933
v 0.159651 0.856555 -0.076707
v 0.108352 0.944956 -0.066660
v 0.052595 0.990854 -0.056487
v 0.064163 0.498324 -0.107912
v 0.023100 0.347009 0.019450
v 0.036327 0.594694 -0.127094
v 0.024986 0.567940 -0.125515
v 0.047183 0.639368 -0.131881
v 0.053550 0.696451 -0.128463
v 0.053423 0.765632 -0.120207
v 0.048655 0.827954 -0.105944
v 0.033572 0.882294 -0.091255
v 0.021551 0.914920 -0.080511
v -0.080434 0.379938 -0.011945
v -0.148697 0.474785 -0.019877
v -0.190937 0.539080 -0.016042
v -0.207068 0.616879 -0.011402
v -0.208835 0.764195 -0.002616
v -0.174105 0.932873 0.007444
v -0.129789 1.025698 0.012980
v -0.065109 1.097974 0.017290
v -0.044741 0.112779 0.013272
v -0.038551 0.322303 0.023481
v -0.067430 0.407208 -0.004389
v -0.173994 0.456823 -0.046984
v -0.223126 0.526451 -0.042625
v -0.241725 0.609966 -0.037396
v -0.243677 0.761490 -0.027909
v -0.205361 0.934750 -0.017062
v -0.155339 1.032303 -0.010954
v -0.080374 1.110296 -0.006071
v -0.054086 -0.183149 -0.003063
v -0.066546 -0.474405 -0.022460
v -0.077449 -0.628599 -0.032670
v -0.099254 -0.817058 -0.041858
v -0.111714 -0.952562 -0.040837
v -0.111714 -1.024208 -0.033797
v -0.089909 -1.077164 -0.024699
v -0.050971 -1.119217 -0.015878
v -0.040919 0.242144 0.022229
v -0.108286 0.436519 -0.071731
v -0.038551 0.315922 0.003037
v -0.044741 0.112779 -0.011426
v -0.069463 0.379938 -0.029116
v -0.160573 0.900042 -0.082897
v -0.205749 0.761490 -0.127432
v -0.196937 0.609966 -0.141002
v -0.171143 0.526451 -0.123773
v -0.118298 0.994589 -0.052289
v -0.048902 1.098244 -0.023299
v -0.054086 -0.183149 -0.036268
v -0.066546 -0.474405 -0.059068
v -0.077449 -0.628599 -0.070128
v -0.099254 -0.817058 -0.080031
v -0.111714 -0.952562 -0.079010
v -0.111714 -1.024208 -0.064620
v -0.089909 -1.077164 -0.049396
v -0.050971 -1.121769 -0.035471
v -0.040919 0.242144 -0.002469
v -0.118925 0.541414 -0.106700
v -0.155810 0.612488 -0.094222
v -0.174387 0.660682 -0.088650
v -0.174839 0.781730 -0.085933
v -0.159651 0.856555 -0.076707
v -0.108352 0.944956 -0.066660
v -0.052595 0.990854 -0.056487
v -0.064163 0.498324 -0.107912
v 0.000000 1.118259 0.018500
v 0.000000 0.109323 0.013272
v 0.000000 0.319928 0.023481
v 0.000000 0.399952 -0.004822
v 0.000000 1.134314 -0.004567
v 0.000000 -0.186605 -0.003063
v 0.000000 -0.477861 -0.022460
v 0.000000 -0.632055 -0.032670
v 0.000000 -0.820514 -0.041858
v 0.000000 -0.956018 -0.040837
v 0.000000 -1.027664 -0.033797
v 0.000000 -1.080620 -0.024699
v 0.000000 -1.122673 -0.015878
v 0.000000 0.239356 0.022229
v 0.000000 1.125532 -0.028357
v 0.000000 0.315922 0.003037
v 0.000000 0.112779 -0.011426
v 0.000000 0.379938 -0.033868
v 0.000000 -0.183149 -0.036268
v 0.000000 -0.474405 -0.059068
v 0.000000 -0.628599 -0.070128
v 0.000000 -0.817058 -0.080031
v 0.000000 -0.952562 -0.079010
v 0.000000 -1.024208 -0.064620
v 0.000000 -1.077164 -0.049396
v 0.000000 -1.121769 -0.035471
v 0.000000 0.242144 -0.002469
v 0.000000 0.430001 -0.098429
v 0.000000 0.885751 -0.110054
v 0.000000 0.754928 -0.153589
v 0.000000 0.603448 -0.167699
v 0.000000 0.519955 -0.150178
v 0.000000 0.988071 -0.078987
v 0.000000 1.009137 -0.051304
v 0.000000 0.345155 0.020488
v -0.023100 0.347009 0.019450
v 0.000000 0.487112 -0.112025
v -0.036327 0.594694 -0.127094
v -0.024986 0.567940 -0.125515
v -0.047183 0.639368 -0.131881
v -0.053550 0.696451 -0.128463
v -0.053423 0.765632 -0.120207
v -0.048655 0.827954 -0.105944
v -0.033572 0.882294 -0.091255
v -0.021551 0.914920 -0.080511
v 0.000000 0.917384 -0.080876
v 0.000000 0.567157 -0.126733
v 0.000000 0.763665 -0.122209
v 0.000000 0.696300 -0.130125
v 0.000000 0.826171 -0.108014
v 0.000000 0.878449 -0.093442
v 0.000000 0.598543 -0.129851
v 0.000000 0.642739 -0.133916
vt 0.4883 0.0026
vt 0.4989 0.0187
vt 0.5139 0.0167
vt 0.5132 0.0002
vt 0.9095 0.8100
vt 0.9109 0.8574
vt 0.9338 0.8560
vt 0.9338 0.8083
vt 0.9018 0.5579
vt 0.9073 0.7333
vt 0.9338 0.7312
vt 0.9338 0.5559
vt 0.4588 0.0454
vt 0.4701 0.0628
vt 0.3908 0.0998
vt 0.4150 0.1148
vt 0.3605 0.1499
vt 0.3878 0.1609
vt 0.3485 0.2063
vt 0.3766 0.2122
vt 0.3505 0.3059
vt 0.3780 0.3060
vt 0.3880 0.4134
vt 0.4125 0.4076
vt 0.4302 0.4712
vt 0.4503 0.4607
vt 0.4975 0.4977
vt 0.4858 0.5130
vt 0.5384 0.5235
vt 0.5375 0.5055
vt 0.8944 0.3852
vt 0.9338 0.3832
vt 0.8879 0.2938
vt 0.9338 0.2917
vt 0.8750 0.1822
vt 0.9338 0.1801
vt 0.8677 0.1020
vt 0.9338 0.0999
vt 0.8677 0.0594
vt 0.9338 0.0574
vt 0.8806 0.0276
vt 0.9338 0.0256
vt 0.9036 0.0022
vt 0.9338 0.0002
vt 0.2252 0.5281
vt 0.2050 0.5159
vt 0.1742 0.5245
vt 0.1742 0.5399
vt 0.8446 0.0704
vt 0.8603 0.0633
vt 0.8460 0.0324
vt 0.8353 0.0412
vt 0.2691 0.1730
vt 0.3277 0.1578
vt 0.2898 0.1121
vt 0.2420 0.1059
vt 0.2116 0.0002
vt 0.1999 0.0085
vt 0.2214 0.0567
vt 0.2329 0.0493
vt 0.8190 0.5690
vt 0.8391 0.5714
vt 0.8488 0.3938
vt 0.8267 0.3910
vt 0.2769 0.4814
vt 0.2490 0.4490
vt 0.2790 0.2204
vt 0.3468 0.2132
vt 0.8330 0.2969
vt 0.8554 0.3000
vt 0.8659 0.1858
vt 0.8430 0.1840
vt 0.2865 0.3002
vt 0.3481 0.3118
vt 0.8454 0.1081
vt 0.8673 0.1053
vt 0.8134 0.7504
vt 0.8284 0.7520
vt 0.8256 0.0051
vt 0.8168 0.0125
vt 0.2720 0.3864
vt 0.3143 0.4207
vt 0.8110 0.8294
vt 0.8259 0.8310
vt 0.8095 0.8744
vt 0.8215 0.8796
vt 0.7861 0.0699
vt 0.7861 0.0389
vt 0.7861 0.7504
vt 0.7861 0.5690
vt 0.7861 0.0120
vt 0.7861 0.3910
vt 0.7861 0.8294
vt 0.7861 0.8744
vt 0.7861 0.2970
vt 0.7861 0.1851
vt 0.1741 0.0086
vt 0.1741 0.0581
vt 0.7861 0.1097
vt 0.1741 0.2152
vt 0.1741 0.1684
vt 0.1741 0.1091
vt 0.1741 0.2984
vt 0.1742 0.4403
vt 0.1742 0.3761
vt 0.5031 0.4211
vt 0.5339 0.4308
vt 0.4571 0.1723
vt 0.4851 0.1473
vt 0.4710 0.3949
vt 0.4355 0.2117
vt 0.4266 0.2393
vt 0.5199 0.1402
vt 0.5159 0.0566
vt 0.4327 0.3053
vt 0.4417 0.3463
vt 0.5031 0.1991
vt 0.4986 0.2235
vt 0.4967 0.2544
vt 0.4986 0.2915
vt 0.5024 0.3258
vt 0.5117 0.3565
vt 0.5191 0.3755
vt 0.5313 0.3762
vt 0.5220 0.1833
vt 0.5085 0.1843
vt 0.5271 0.2890
vt 0.5253 0.2528
vt 0.5287 0.3236
vt 0.5302 0.3533
vt 0.5239 0.2241
vt 0.5228 0.2003
vt 0.8170 0.0006
vt 0.7861 0.0002
vt 0.5381 0.0002
vt 0.5292 0.0172
vt 0.9580 0.8100
vt 0.9566 0.8574
vt 0.9658 0.5579
vt 0.9602 0.7333
vt 0.5717 0.0400
vt 0.5620 0.0584
vt 0.6219 0.1049
vt 0.6445 0.0876
vt 0.6534 0.1481
vt 0.6795 0.1345
vt 0.6694 0.1981
vt 0.6969 0.1895
vt 0.6771 0.2916
vt 0.7045 0.2889
vt 0.6525 0.3960
vt 0.6775 0.3995
vt 0.6200 0.4525
vt 0.6411 0.4610
vt 0.5766 0.4939
vt 0.5897 0.5080
vt 0.9731 0.3852
vt 0.9796 0.2938
vt 0.9925 0.1822
vt 0.9998 0.1020
vt 0.9998 0.0594
vt 0.9869 0.0276
vt 0.9639 0.0022
vt 0.1231 0.5281
vt 0.1433 0.5159
vt 0.7276 0.0704
vt 0.7368 0.0412
vt 0.7261 0.0324
vt 0.7119 0.0633
vt 0.0791 0.1730
vt 0.1062 0.1059
vt 0.0585 0.1121
vt 0.0206 0.1578
vt 0.1366 0.0002
vt 0.1153 0.0493
vt 0.1269 0.0567
vt 0.1484 0.0085
vt 0.7531 0.5690
vt 0.7455 0.3910
vt 0.7234 0.3938
vt 0.7331 0.5714
vt 0.0993 0.4490
vt 0.0714 0.4814
vt 0.0693 0.2204
vt 0.0014 0.2132
vt 0.7391 0.2969
vt 0.7291 0.1840
vt 0.7062 0.1858
vt 0.7167 0.3000
vt 0.0618 0.3002
vt 0.0002 0.3119
vt 0.7267 0.1081
vt 0.7048 0.1053
vt 0.7587 0.7504
vt 0.7437 0.7520
vt 0.7554 0.0125
vt 0.7465 0.0051
vt 0.0763 0.3864
vt 0.0340 0.4208
vt 0.7612 0.8294
vt 0.7463 0.8310
vt 0.7506 0.8796
vt 0.7626 0.8744
vt 0.5637 0.4182
vt 0.5552 0.1439
vt 0.5855 0.1661
vt 0.5931 0.3890
vt 0.6107 0.2033
vt 0.6223 0.2299
vt 0.6226 0.2962
vt 0.6176 0.3378
vt 0.5423 0.1972
vt 0.5491 0.2211
vt 0.5540 0.2516
vt 0.5557 0.2888
vt 0.5552 0.3233
vt 0.5489 0.3547
vt 0.5434 0.3743
vt 0.5355 0.1830
vt 0.7551 0.0006
vn 0.6312 -0.0924 0.7701
vn 0.1195 0.2485 0.9612
vn 0.0000 0.2679 0.9634
vn 0.0000 0.0600 0.9982
vn 0.7031 -0.0084 0.7110
vn 0.0000 -0.0433 0.9991
vn 0.7062 -0.0170 0.7078
vn 0.7103 -0.0222 0.7035
vn 0.0000 -0.0616 0.9981
vn 0.0000 -0.0609 0.9981
vn 0.7726 -0.4978 0.3940
vn 0.1074 0.3608 0.9264
vn 0.7300 -0.6738 0.1138
vn -0.0176 0.1087 0.9939
vn 0.8720 -0.4560 0.1779
vn -0.0855 -0.0229 0.9961
vn 0.9574 -0.1567 0.2423
vn -0.1807 -0.0032 0.9835
vn 0.9671 0.1040 0.2322
vn -0.2196 -0.0633 0.9735
vn 0.9207 0.3734 0.1137
vn -0.0776 -0.1241 0.9892
vn 0.8040 0.5938 -0.0290
vn 0.0925 -0.0380 0.9950
vn 0.1571 0.1845 0.9702
vn 0.5661 0.8219 -0.0638
vn 0.0000 0.9993 -0.0380
vn 0.0000 0.3011 0.9536
vn 0.7054 -0.0075 0.7087
vn 0.0000 -0.0661 0.9978
vn 0.7038 0.0243 0.7100
vn 0.0000 -0.0570 0.9984
vn 0.7132 0.0606 0.6983
vn 0.0000 -0.0199 0.9998
vn 0.7252 0.0687 0.6851
vn 0.0000 0.0536 0.9985
vn 0.7439 -0.0740 0.6642
vn 0.0000 0.1349 0.9908
vn 0.6460 -0.2939 0.7045
vn 0.0000 0.1907 0.9816
vn 0.3411 -0.6066 0.7181
vn 0.0000 -0.6309 0.7758
vn 0.2926 0.5261 -0.7985
vn 0.0000 0.6236 -0.7817
vn 0.7146 -0.2728 -0.6442
vn 0.6026 -0.5329 -0.5940
vn 0.4922 -0.4135 -0.7659
vn 0.3437 -0.6673 -0.6607
vn 0.6514 -0.3323 -0.6820
vn 0.3937 -0.7067 -0.5879
vn 0.7036 0.0835 -0.7056
vn 0.7005 0.0932 -0.7075
vn 0.3521 0.3921 -0.8498
vn 0.5923 -0.1044 -0.7989
vn 0.6948 0.1091 -0.7109
vn 0.6986 0.0869 -0.7102
vn 0.5943 0.1920 -0.7809
vn 0.6976 -0.0417 -0.7153
vn 0.7074 0.0756 -0.7028
vn 0.3196 -0.8116 -0.4890
vn 0.4744 0.3615 -0.8026
vn 0.7049 0.0719 -0.7056
vn 0.0000 -0.2368 -0.9716
vn 0.0000 -0.2871 -0.9579
vn 0.0000 0.0764 -0.9971
vn 0.0000 0.0808 -0.9967
vn 0.0000 -0.8177 -0.5755
vn 0.0000 0.0748 -0.9972
vn 0.0000 0.0717 -0.9974
vn 0.0000 -0.2124 -0.9772
vn 0.0000 0.0620 -0.9980
vn 0.0000 0.0225 -0.9997
vn 0.0000 -0.6194 -0.7851
vn 0.0000 -0.1027 -0.9947
vn 0.0000 -0.0724 -0.9974
vn 0.0000 -0.3901 -0.9208
vn 0.0000 -0.6394 -0.7688
vn 0.0000 0.2052 -0.9787
vn 0.0000 0.3485 -0.9373
vn 0.0000 0.3291 -0.9443
vn -0.1936 -0.4396 0.8770
vn 0.0000 -0.4546 0.8907
vn -0.4634 0.3264 0.8238
vn -0.2466 0.4983 0.8311
vn -0.4045 -0.3960 0.8243
vn -0.5952 0.1492 0.7895
vn -0.6865 0.0285 0.7265
vn 0.0000 0.5256 0.8507
vn 0.0000 0.5886 0.8084
vn -0.6704 -0.1402 0.7286
vn -0.6171 -0.2774 0.7363
vn -0.1427 0.0954 0.9851
vn -0.1758 0.0182 0.9842
vn -0.1772 -0.0616 0.9822
vn -0.1505 -0.1458 0.9778
vn -0.1176 -0.2303 0.9660
vn -0.0775 -0.2753 0.9582
vn -0.0372 -0.3038 0.9520
vn 0.0000 -0.3075 0.9515
vn 0.0000 0.1419 0.9899
vn -0.1010 0.1446 0.9843
vn 0.0000 -0.1693 0.9855
vn 0.0000 -0.0902 0.9959
vn 0.0000 -0.2455 0.9694
vn 0.0000 -0.2902 0.9570
vn 0.0000 0.0172 0.9998
vn 0.0000 0.0990 0.9951
vn -0.6312 -0.0924 0.7701
vn -0.1195 0.2485 0.9612
vn -0.7031 -0.0084 0.7110
vn -0.7062 -0.0170 0.7078
vn -0.7103 -0.0222 0.7035
vn -0.7726 -0.4978 0.3940
vn -0.1074 0.3608 0.9264
vn 0.0176 0.1087 0.9939
vn -0.7300 -0.6738 0.1138
vn 0.0855 -0.0229 0.9961
vn -0.8720 -0.4560 0.1779
vn 0.1807 -0.0032 0.9835
vn -0.9574 -0.1567 0.2423
vn 0.2196 -0.0633 0.9735
vn -0.9671 0.1040 0.2322
vn 0.0776 -0.1241 0.9892
vn -0.9207 0.3734 0.1137
vn -0.0925 -0.0380 0.9950
vn -0.8040 0.5938 -0.0290
vn -0.1571 0.1845 0.9702
vn -0.5661 0.8219 -0.0638
vn -0.7054 -0.0075 0.7087
vn -0.7038 0.0243 0.7100
vn -0.7132 0.0606 0.6983
vn -0.7252 0.0687 0.6851
vn -0.7439 -0.0740 0.6642
vn -0.6460 -0.2939 0.7045
vn -0.3411 -0.6066 0.7181
vn -0.2926 0.5261 -0.7985
vn -0.7146 -0.2728 -0.6442
vn -0.6026 -0.5329 -0.5940
vn -0.4922 -0.4135 -0.7659
vn -0.3437 -0.6673 -0.6607
vn -0.3937 -0.7067 -0.5879
vn -0.6514 -0.3323 -0.6820
vn -0.7036 0.0835 -0.7056
vn -0.7005 0.0932 -0.7075
vn -0.3521 0.3921 -0.8498
vn -0.5923 -0.1044 -0.7989
vn -0.6948 0.1091 -0.7109
vn -0.6986 0.0869 -0.7102
vn -0.5943 0.1920 -0.7809
vn -0.6976 -0.0417 -0.7153
vn -0.7074 0.0756 -0.7028
vn -0.3196 -0.8116 -0.4890
vn -0.4744 0.3615 -0.8026
vn -0.7049 0.0719 -0.7056
vn 0.1936 -0.4396 0.8770
vn 0.2466 0.4983 0.8311
vn 0.4634 0.3264 0.8238
vn 0.4045 -0.3960 0.8243
vn 0.5952 0.1492 0.7895
vn 0.6865 0.0285 0.7265
vn 0.6704 -0.1402 0.7286
vn 0.6171 -0.2774 0.7363
vn 0.1427 0.0954 0.9851
vn 0.1758 0.0182 0.9842
vn 0.1772 -0.0616 0.9822
vn 0.1505 -0.1458 0.9778
vn 0.1176 -0.2303 0.9660
vn 0.0775 -0.2753 0.9582
vn 0.0372 -0.3038 0.9520
vn 0.1010 0.1446 0.9843
usemtl None
s 1
f 10/1/1 55/2/2 152/3/3 120/4/4
f 27/5/5 10/6/1 120/7/4 131/8/6
f 19/9/7 9/10/8 119/11/9 123/12/10
f 1/13/11 11/14/12 55/2/2 10/1/1
f 11/14/12 1/13/11 12/15/13 2/16/14
f 2/16/14 12/15/13 13/17/15 3/18/16
f 3/18/16 13/17/15 14/19/17 4/20/18
f 4/20/18 14/19/17 15/21/19 5/22/20
f 5/22/20 15/21/19 16/23/21 6/24/22
f 6/24/22 16/23/21 17/25/23 7/26/24
f 8/27/25 18/28/26 122/29/27 118/30/28
f 7/26/24 17/25/23 18/28/26 8/27/25
f 20/31/29 19/9/7 123/12/10 124/32/30
f 21/33/31 20/31/29 124/32/30 125/34/32
f 22/35/33 21/33/31 125/34/32 126/36/34
f 23/37/35 22/35/33 126/36/34 127/38/36
f 24/39/37 23/37/35 127/38/36 128/40/38
f 25/41/39 24/39/37 128/40/38 129/42/40
f 26/43/41 25/41/39 129/42/40 130/44/42
f 9/10/8 27/5/5 131/8/6 119/11/9
f 18/45/26 37/46/43 132/47/44 122/48/27
f 43/49/45 24/50/37 25/51/39 44/52/46
f 35/53/47 13/54/15 12/55/13 28/56/48
f 10/57/1 29/58/49 31/59/50 1/60/11
f 38/61/51 19/62/7 20/63/29 39/64/52
f 37/46/43 18/45/26 17/65/23 36/66/53
f 34/67/54 14/68/17 13/54/15 35/53/47
f 40/69/55 21/70/31 22/71/33 41/72/56
f 33/73/57 15/74/19 14/68/17 34/67/54
f 42/75/58 23/76/35 24/50/37 43/49/45
f 30/77/59 9/78/8 19/62/7 38/61/51
f 44/52/46 25/51/39 26/79/41 45/80/60
f 32/81/61 16/82/21 15/74/19 33/73/57
f 46/83/62 27/84/5 9/78/8 30/77/59
f 39/64/52 20/63/29 21/70/31 40/69/55
f 27/84/5 46/83/62 29/85/49 10/86/1
f 36/66/53 17/65/23 16/82/21 32/81/61
f 28/56/48 12/55/13 1/60/11 31/59/50
f 41/72/56 22/71/33 23/76/35 42/75/58
f 141/87/63 43/49/45 44/52/46 142/88/64
f 134/89/65 30/77/59 38/61/51 136/90/66
f 142/88/64 44/52/46 45/80/60 143/91/67
f 136/90/66 38/61/51 39/64/52 137/92/68
f 46/83/62 144/93/69 133/94/70 29/85/49
f 137/92/68 39/64/52 40/69/55 138/95/71
f 138/95/71 40/69/55 41/72/56 139/96/72
f 29/58/49 133/97/70 135/98/73 31/59/50
f 139/96/72 41/72/56 42/75/58 140/99/74
f 144/93/69 46/83/62 30/77/59 134/89/65
f 140/99/74 42/75/58 43/49/45 141/87/63
f 148/100/75 34/67/54 35/53/47 149/101/76
f 28/56/48 31/59/50 135/98/73 145/102/77
f 147/103/78 33/73/57 34/67/54 148/100/75
f 150/104/79 36/66/53 32/81/61 146/105/80
f 146/105/80 32/81/61 33/73/57 147/103/78
f 149/101/76 35/53/47 28/56/48 145/102/77
f 132/47/44 37/46/43 36/66/53 150/104/79
f 53/106/81 8/27/25 118/30/28 151/107/82
f 2/16/14 47/108/83 54/109/84 11/14/12
f 8/27/25 53/106/81 52/110/85 7/26/24
f 3/18/16 48/111/86 47/108/83 2/16/14
f 4/20/18 49/112/87 48/111/86 3/18/16
f 11/14/12 54/109/84 154/113/88 121/114/89
f 5/22/20 50/115/90 49/112/87 4/20/18
f 6/24/22 51/116/91 50/115/90 5/22/20
f 7/26/24 52/110/85 51/116/91 6/24/22
f 55/2/2 11/14/12 121/114/89 152/3/3
f 56/117/92 47/108/83 48/111/86 58/118/93
f 58/118/93 48/111/86 49/112/87 59/119/94
f 59/119/94 49/112/87 50/115/90 60/120/95
f 60/120/95 50/115/90 51/116/91 61/121/96
f 61/121/96 51/116/91 52/110/85 62/122/97
f 63/123/98 53/106/81 151/107/82 163/124/99
f 62/122/97 52/110/85 53/106/81 63/123/98
f 164/125/100 154/113/88 54/109/84 57/126/101
f 59/119/94 60/120/95 165/127/102 166/128/103
f 60/120/95 61/121/96 167/129/104 165/127/102
f 61/121/96 62/122/97 168/130/105 167/129/104
f 62/122/97 63/123/98 163/124/99 168/130/105
f 58/118/93 59/119/94 166/128/103 170/131/106
f 56/117/92 58/118/93 170/131/106 169/132/107
f 57/126/101 56/117/92 169/132/107 164/125/100
f 57/126/101 54/109/84 47/108/83 56/117/92
f 26/133/41 130/134/42 143/91/67 45/80/60
f 73/135/108 120/4/4 152/3/3 153/136/109
f 90/137/110 131/8/6 120/7/4 73/138/108
f 82/139/111 123/12/10 119/11/9 72/140/112
f 64/141/113 73/135/108 153/136/109 74/142/114
f 74/142/114 65/143/115 75/144/116 64/141/113
f 65/143/115 66/145/117 76/146/118 75/144/116
f 66/145/117 67/147/119 77/148/120 76/146/118
f 67/147/119 68/149/121 78/150/122 77/148/120
f 68/149/121 69/151/123 79/152/124 78/150/122
f 69/151/123 70/153/125 80/154/126 79/152/124
f 71/155/127 118/30/28 122/29/27 81/156/128
f 70/153/125 71/155/127 81/156/128 80/154/126
f 83/157/129 124/32/30 123/12/10 82/139/111
f 84/158/130 125/34/32 124/32/30 83/157/129
f 85/159/131 126/36/34 125/34/32 84/158/130
f 86/160/132 127/38/36 126/36/34 85/159/131
f 87/161/133 128/40/38 127/38/36 86/160/132
f 88/162/134 129/42/40 128/40/38 87/161/133
f 89/163/135 130/44/42 129/42/40 88/162/134
f 72/140/112 119/11/9 131/8/6 90/137/110
f 81/164/128 122/48/27 132/47/44 100/165/136
f 106/166/137 107/167/138 88/168/134 87/169/133
f 98/170/139 91/171/140 75/172/116 76/173/118
f 73/174/108 64/175/113 94/176/141 92/177/142
f 101/178/143 102/179/144 83/180/129 82/181/111
f 100/165/136 99/182/145 80/183/126 81/164/128
f 97/184/146 98/170/139 76/173/118 77/185/120
f 103/186/147 104/187/148 85/188/131 84/189/130
f 96/190/149 97/184/146 77/185/120 78/191/122
f 105/192/150 106/166/137 87/169/133 86/193/132
f 93/194/151 101/178/143 82/181/111 72/195/112
f 107/167/138 108/196/152 89/197/135 88/168/134
f 95/198/153 96/190/149 78/191/122 79/199/124
f 109/200/154 93/194/151 72/195/112 90/201/110
f 102/179/144 103/186/147 84/189/130 83/180/129
f 90/201/110 73/202/108 92/203/142 109/200/154
f 99/182/145 95/198/153 79/199/124 80/183/126
f 91/171/140 94/176/141 64/175/113 75/172/116
f 104/187/148 105/192/150 86/193/132 85/188/131
f 141/87/63 142/88/64 107/167/138 106/166/137
f 134/89/65 136/90/66 101/178/143 93/194/151
f 142/88/64 143/91/67 108/196/152 107/167/138
f 136/90/66 137/92/68 102/179/144 101/178/143
f 109/200/154 92/203/142 133/94/70 144/93/69
f 137/92/68 138/95/71 103/186/147 102/179/144
f 138/95/71 139/96/72 104/187/148 103/186/147
f 92/177/142 94/176/141 135/98/73 133/97/70
f 139/96/72 140/99/74 105/192/150 104/187/148
f 144/93/69 134/89/65 93/194/151 109/200/154
f 140/99/74 141/87/63 106/166/137 105/192/150
f 148/100/75 149/101/76 98/170/139 97/184/146
f 91/171/140 145/102/77 135/98/73 94/176/141
f 147/103/78 148/100/75 97/184/146 96/190/149
f 150/104/79 146/105/80 95/198/153 99/182/145
f 146/105/80 147/103/78 96/190/149 95/198/153
f 149/101/76 145/102/77 91/171/140 98/170/139
f 132/47/44 150/104/79 99/182/145 100/165/136
f 116/204/155 151/107/82 118/30/28 71/155/127
f 65/143/115 74/142/114 117/205/156 110/206/157
f 71/155/127 70/153/125 115/207/158 116/204/155
f 66/145/117 65/143/115 110/206/157 111/208/159
f 67/147/119 66/145/117 111/208/159 112/209/160
f 74/142/114 121/114/89 154/113/88 117/205/156
f 68/149/121 67/147/119 112/209/160 113/210/161
f 69/151/123 68/149/121 113/210/161 114/211/162
f 70/153/125 69/151/123 114/211/162 115/207/158
f 153/136/109 152/3/3 121/114/89 74/142/114
f 155/212/163 157/213/164 111/208/159 110/206/157
f 157/213/164 158/214/165 112/209/160 111/208/159
f 158/214/165 159/215/166 113/210/161 112/209/160
f 159/215/166 160/216/167 114/211/162 113/210/161
f 160/216/167 161/217/168 115/207/158 114/211/162
f 162/218/169 163/124/99 151/107/82 116/204/155
f 161/217/168 162/218/169 116/204/155 115/207/158
f 164/125/100 156/219/170 117/205/156 154/113/88
f 158/214/165 166/128/103 165/127/102 159/215/166
f 159/215/166 165/127/102 167/129/104 160/216/167
f 160/216/167 167/129/104 168/130/105 161/217/168
f 161/217/168 168/130/105 163/124/99 162/218/169
f 157/213/164 170/131/106 166/128/103 158/214/165
f 155/212/163 169/132/107 170/131/106 157/213/164
f 156/219/170 164/125/100 169/132/107 155/212/163
f 156/219/170 155/212/163 110/206/157 117/205/156
f 89/220/135 108/196/152 143/91/67 130/134/42
